HIERARCHY
ROOT Hips
{
	OFFSET 0.00000 0.00000 0.00000
	CHANNELS 6 Xposition Yposition Zposition Zrotation Yrotation Xrotation 
	JOINT RightUpLegDummy
	{
		OFFSET 0 0 0
		CHANNELS 3 Zrotation Yrotation Xrotation
		JOINT RightUpLeg
		{
			OFFSET -3.52197 -3.41223 0.04002
			CHANNELS 3 Zrotation Yrotation Xrotation
			JOINT RightLeg
			{
				OFFSET 0.00006 -17.42390 1.60435
				CHANNELS 3 Zrotation Yrotation Xrotation
				JOINT RightFoot
				{
					OFFSET 0.06154 -16.50078 -1.63900
					CHANNELS 3 Zrotation Yrotation Xrotation
					JOINT RightToes
					{
						OFFSET 0.00298 -1.73825 3.34613
						CHANNELS 3 Zrotation Yrotation Xrotation
						End Site
						{
							OFFSET 0.00480 -0.05416 3.85043
						}
					}
				}
			}
		}
	}
	JOINT SpineDummy
	{
		OFFSET 0 0 0
		CHANNELS 3 Zrotation Yrotation Xrotation
		JOINT Spine
		{
			OFFSET 0.00000 4.68130 0.00000
			CHANNELS 3 Zrotation Yrotation Xrotation
			JOINT Spine1
			{
				OFFSET -0.00000 10.10138 0.05002
				CHANNELS 3 Zrotation Yrotation Xrotation
				JOINT HEadDummy
				{
					OFFSET 0 0 0
					CHANNELS 3 Zrotation Yrotation Xrotation
					JOINT Head
					{
						OFFSET -0.00000 3.43865 0.00438
						CHANNELS 3 Zrotation Yrotation Xrotation
						End Site
						{
							OFFSET -0.11417 5.02924 0.98962
						}
					}
				}
				JOINT LeftShoulder1Dummy
				{
					OFFSET 0 0 0
					CHANNELS 3 Zrotation Yrotation Xrotation
					JOINT LeftShoulder1
					{
						OFFSET 3.53937 -0.14262 -0.08662
						CHANNELS 3 Zrotation Yrotation Xrotation
						JOINT LeftArm
						{
							OFFSET 4.04833 -0.00133 0.12681
							CHANNELS 3 Zrotation Yrotation Xrotation
							JOINT LeftForeArm
							{
								OFFSET 10.33880 -0.01036 -0.55515
								CHANNELS 3 Zrotation Yrotation Xrotation
								JOINT LeftHand
								{
									OFFSET 8.69677 0.07543 0.40060
									CHANNELS 3 Zrotation Yrotation Xrotation
									End Site
									{
										OFFSET 5.28377 -0.21905 0.59205
									}
								}
							}
						}
					}
				}
				JOINT RightShoulderDummy
				{
					OFFSET 0 0 0
					CHANNELS 3 Zrotation Yrotation Xrotation
					JOINT RightShoulder
					{
						OFFSET -3.53937 -0.14262 -0.08660
						CHANNELS 3 Zrotation Yrotation Xrotation
						JOINT RightArm
						{
							OFFSET -4.04833 -0.00133 0.12683
							CHANNELS 3 Zrotation Yrotation Xrotation
							JOINT RightForeArm
							{
								OFFSET -10.37987 -0.01039 -0.55511
								CHANNELS 3 Zrotation Yrotation Xrotation
								JOINT RightHand
								{
									OFFSET -8.67398 0.07538 0.40058
									CHANNELS 3 Zrotation Yrotation Xrotation
									End Site
									{
										OFFSET -5.24810 -0.21916 0.59204
									}
								}
							}
						}
					}
				}
			}
		}
	}
	JOINT LeftUpLegDummy
	{
		OFFSET 0 0 0
		CHANNELS 3 Zrotation Yrotation Xrotation
		JOINT LeftUpLeg
		{
			OFFSET 3.52197 -3.41223 0.04002
			CHANNELS 3 Zrotation Yrotation Xrotation
			JOINT LeftLeg
			{
				OFFSET -0.00012 -17.42399 1.60337
				CHANNELS 3 Zrotation Yrotation Xrotation
				JOINT LeftFoot
				{
					OFFSET -0.09972 -16.50070 -1.63802
					CHANNELS 3 Zrotation Yrotation Xrotation
					JOINT LeftToes
					{
						OFFSET -0.01575 -1.73823 3.34611
						CHANNELS 3 Zrotation Yrotation Xrotation
						End Site
						{
							OFFSET 0.03150 -0.01868 3.85031
						}
					}
				}
			}
		}
	}
}
MOTION
Frames: 9
Frame Time: 0.033333
37.4992 39.5541 2.8604 147.4290 88.6515 146.6440 0.0000 0.0000 0.0000 -2.6153 -7.4102 0.5396 -2.8072 -17.0644 8.2888 5.1356 -0.2624 -5.9927 0.0000 0.0000 -0.0000 0.0000 0.0000 0.0000 -6.0760 -0.1986 -15.2819 6.5798 -1.2803 19.7494 0.0000 0.0000 0.0000 3.0242 28.9299 5.5331 0.0000 0.0000 0.0000 -19.0062 -0.6715 1.0667 -51.0981 -9.0893 -2.1800 -6.1477 -18.2129 -1.9253 25.7120 -3.7549 -2.0224 0.0000 0.0000 0.0000 19.4904 -0.0140 0.9076 55.8869 9.9977 -6.1024 10.7223 10.0534 27.3813 -5.2465 1.2182 -0.2874 0.0000 0.0000 0.0000 8.0021 -0.3664 4.5860 -0.6568 -23.4558 6.8288 -9.5619 0.4720 -6.1367 0.0000 0.0000 0.0000
37.4318 39.5209 3.1256 165.8140 87.3730 165.0110 0.0000 0.0000 0.0000 -2.3211 -7.4395 0.3034 -3.2067 -18.3597 9.0555 5.0175 -0.2383 -6.4544 0.0000 0.0000 -0.0000 0.0000 0.0000 0.0000 -6.2634 0.2837 -14.0960 7.1557 -0.9329 19.4027 0.0000 0.0000 0.0000 2.5646 28.1875 4.8177 0.0000 0.0000 0.0000 -18.6994 -0.8979 1.1119 -50.8711 -8.6225 -13.0446 -9.2647 -13.9328 3.3127 24.6178 -3.0090 -1.7783 0.0000 0.0000 0.0000 19.5354 0.0479 0.9251 55.7933 10.4680 -4.4115 10.5507 10.8231 25.4658 -5.3386 1.0735 -0.2875 0.0000 0.0000 0.0000 8.1884 -2.5354 3.5843 -0.9598 -22.2973 7.9871 -10.1171 0.5030 -6.0692 0.0000 0.0000 0.0000
37.3649 39.4755 3.3646 168.6070 86.1391 167.8070 0.0000 0.0000 0.0000 -2.0559 -7.5123 -0.0204 -3.6063 -19.4665 9.9175 4.9588 -0.2164 -6.9432 0.0000 0.0000 -0.0000 0.0000 0.0000 0.0000 -6.1902 0.7472 -13.0400 7.6086 -0.5909 19.2667 0.0000 0.0000 0.0000 1.9873 27.4384 3.9638 0.0000 0.0000 0.0000 -18.5361 -1.1303 1.1636 -50.3871 -8.0333 -22.2438 -10.9745 -8.6995 12.5198 22.0990 -2.7871 -1.5455 0.0000 0.0000 0.0000 19.5492 0.1137 0.9427 55.7087 11.1051 -2.5292 10.3367 11.6179 23.2370 -5.4057 0.9359 -0.2857 0.0000 0.0000 0.0000 8.4781 -5.7594 2.3550 -1.5376 -19.7435 9.5507 -10.5132 0.5211 -6.0718 0.0000 0.0000 0.0000
37.2961 39.4115 3.5627 171.9760 84.8865 171.1440 0.0000 0.0000 0.0000 -1.7122 -7.5861 -0.3386 -4.0358 -20.5712 10.8467 4.9634 -0.1963 -7.4546 0.0000 0.0000 -0.0000 0.0000 0.0000 0.0000 -5.5316 1.1223 -12.0495 7.7016 -0.2741 19.3542 0.0000 0.0000 0.0000 1.3632 26.8897 3.1270 0.0000 0.0000 0.0000 -18.5897 -1.2355 1.1923 -49.9707 -7.5659 -26.6496 -10.8253 -3.8693 21.2221 19.7215 -3.1171 -1.4279 0.0000 0.0000 0.0000 19.5575 0.2151 0.9694 55.6065 11.9071 -0.8079 10.0813 12.3220 21.4408 -5.3050 0.9139 -0.2793 0.0000 0.0000 0.0000 9.0937 -10.2812 0.7815 -2.4156 -15.5200 11.6895 -10.7961 0.5257 -6.1676 0.0000 0.0000 0.0000
37.2145 39.3306 3.7201 175.7540 83.5527 174.8020 0.0000 0.0000 0.0000 -1.2352 -7.6065 -0.6142 -4.5753 -21.8164 11.8566 5.0631 -0.1794 -7.9554 0.0000 0.0000 -0.0000 0.0000 0.0000 0.0000 -4.2922 1.4134 -10.9964 7.4687 0.0213 19.5978 0.0000 0.0000 0.0000 0.8224 26.4963 2.4608 0.0000 0.0000 0.0000 -18.7723 -1.2770 1.2108 -49.9229 -7.2290 -27.5301 -9.9060 -0.1112 27.7085 18.0390 -3.3448 -1.3366 0.0000 0.0000 0.0000 19.5516 0.3388 1.0014 55.5113 12.7649 1.1261 9.6318 13.2115 19.6000 -4.9319 0.8029 -0.2554 0.0000 0.0000 0.0000 9.9884 -14.5017 -1.1695 -3.2940 -11.0387 14.4678 -11.1445 0.5322 -6.2688 0.0000 0.0000 0.0000
37.1108 39.2468 3.8509 178.5790 82.2639 177.3840 0.0000 0.0000 0.0000 -0.7287 -7.5710 -0.8343 -5.2445 -23.0624 12.9179 5.2281 -0.1665 -8.3799 0.0000 0.0000 -0.0000 0.0000 0.0000 0.0000 -2.7900 1.7171 -9.7771 7.0965 0.3725 19.9441 0.0000 0.0000 0.0000 0.4801 26.0901 1.9001 0.0000 0.0000 0.0000 -18.8912 -1.3547 1.2358 -50.5108 -6.8689 -28.5184 -8.9907 2.7414 32.9871 16.8564 -3.2161 -1.2276 0.0000 0.0000 0.0000 19.5513 0.4388 1.0274 55.4108 13.5963 3.8066 8.8232 14.5283 16.7821 -4.4276 0.4937 -0.2193 0.0000 0.0000 0.0000 10.5775 -15.3147 -3.2959 -3.7085 -9.1508 17.9459 -11.7818 0.5784 -6.0891 0.0000 0.0000 0.0000
36.9900 39.1696 3.9650 -179.9050 81.0604 178.4970 0.0000 0.0000 0.0000 -0.3381 -7.5634 -0.9264 -5.9751 -24.1576 13.9884 5.3794 -0.1556 -8.7217 0.0000 0.0000 -0.0000 0.0000 0.0000 0.0000 -1.3120 2.0531 -8.3272 6.7391 0.7814 20.3845 0.0000 0.0000 0.0000 0.2216 25.7458 1.2206 0.0000 0.0000 0.0000 -18.8870 -1.4280 1.2543 -51.8272 -6.4749 -29.3087 -8.2613 4.5181 35.7228 16.3653 -3.0528 -1.1685 0.0000 0.0000 0.0000 19.5870 0.5131 1.0481 55.2464 14.3636 7.2559 7.6574 16.1502 12.8654 -4.1471 0.2092 -0.1972 0.0000 0.0000 0.0000 10.8019 -14.5729 -5.4829 -3.8735 -8.0806 21.9337 -12.6453 0.7083 -5.2362 0.0000 0.0000 0.0000
36.8694 39.0901 4.0571 -178.8870 79.7549 178.9580 0.0000 0.0000 0.0000 -0.0603 -7.6695 -0.8535 -6.7201 -25.2015 15.1082 5.5279 -0.1439 -9.0605 0.0000 0.0000 -0.0000 0.0000 0.0000 0.0000 0.1926 2.3228 -6.7319 6.4163 1.1488 20.9312 0.0000 0.0000 0.0000 -0.1830 25.5492 0.3737 0.0000 0.0000 0.0000 -18.9237 -1.4374 1.2583 -53.4936 -6.0299 -29.5424 -8.0105 5.2716 36.2646 16.6182 -3.1162 -1.1961 0.0000 0.0000 0.0000 19.6091 0.6095 1.0740 55.0371 14.9701 11.0401 6.2588 17.8141 8.4767 -4.2709 0.1759 -0.2023 0.0000 0.0000 0.0000 10.8717 -13.7353 -7.7788 -3.8722 -6.7927 26.2373 -13.4783 0.9367 -3.6024 0.0000 0.0000 0.0000
36.7661 39.0011 4.1221 -177.7030 78.2731 179.5750 0.0000 0.0000 0.0000 0.2227 -7.8474 -0.7290 -7.4871 -26.3436 16.2693 5.7521 -0.1316 -9.4189 0.0000 0.0000 -0.0000 0.0000 0.0000 0.0000 1.9285 2.4963 -5.3080 6.0006 1.4788 21.6251 0.0000 0.0000 0.0000 -0.7227 25.2184 -0.4460 0.0000 0.0000 0.0000 -19.1032 -1.4633 1.2732 -55.1388 -5.4957 -28.9497 -8.3398 5.1319 35.9570 16.8769 -3.3056 -1.2415 0.0000 0.0000 0.0000 19.5606 0.7380 1.1056 54.8439 15.3462 14.3865 4.8704 19.2659 4.4788 -4.6233 0.3543 -0.2248 0.0000 0.0000 0.0000 10.8820 -12.9550 -10.2236 -3.5508 -5.3408 30.5734 -14.0709 1.2275 -1.4803 0.0000 0.0000 0.0000
